<?xml version="1.0" standalone="no"?>
<!DOCTYPE svg PUBLIC "-//W3C//DTD SVG 20010904//EN"
 "http://www.w3.org/TR/2001/REC-SVG-20010904/DTD/svg10.dtd">
<svg version="1.0" xmlns="http://www.w3.org/2000/svg"
 width="500.000000pt" height="500.000000pt" viewBox="0 0 500.000000 500.000000"
 preserveAspectRatio="xMidYMid meet">

<g transform="translate(0.000000,500.000000) scale(0.100000,-0.100000)"
fill="#000000" stroke="none">
<path d="M2555 4575 c-241 -86 -245 -90 -245 -290 l0 -102 -52 -7 c-29 -3 -72
-6 -94 -6 -64 0 -213 -29 -261 -50 -24 -10 -47 -28 -51 -40 -4 -11 -23 -28
-42 -39 -32 -16 -37 -25 -56 -102 -24 -94 -20 -110 30 -140 l32 -19 17 -152
c10 -84 23 -190 29 -236 12 -86 6 -108 -25 -97 -8 4 -27 30 -41 59 -53 109
-137 181 -257 223 -64 22 -91 25 -199 26 -114 0 -133 -3 -215 -31 -122 -41
-195 -83 -272 -155 -118 -111 -170 -216 -180 -366 -4 -60 -10 -90 -21 -98 -10
-9 -13 -24 -10 -56 7 -61 28 -100 64 -117 26 -13 33 -25 48 -82 10 -37 25 -77
35 -90 10 -13 23 -45 30 -73 15 -60 54 -131 81 -145 36 -19 21 -27 -68 -33
-182 -12 -336 -113 -410 -268 -119 -249 -13 -519 227 -575 31 -8 75 -14 99
-14 l42 0 0 -48 c0 -40 -7 -59 -44 -115 -59 -90 -72 -183 -31 -217 20 -16 46
-6 137 56 43 30 80 54 82 54 2 0 6 -28 10 -63 23 -218 194 -404 426 -463 79
-20 252 -15 350 11 79 21 237 95 345 163 44 28 82 48 84 46 3 -3 -38 -46 -90
-97 -103 -99 -119 -129 -119 -222 0 -151 133 -202 310 -119 42 20 91 63 206
180 84 85 157 154 163 154 8 0 9 -9 4 -27 -13 -47 -8 -147 10 -194 31 -81 136
-142 247 -142 146 0 254 97 282 254 12 70 30 76 55 22 24 -51 63 -69 114 -53
35 12 40 11 69 -14 39 -33 60 -33 98 -1 29 24 33 25 75 13 36 -9 54 -9 87 1
37 11 45 19 63 61 18 42 24 49 57 54 51 8 88 40 96 82 4 24 14 38 29 44 30 12
55 48 55 81 0 24 5 27 63 39 112 22 197 83 249 182 19 35 23 59 23 133 0 77
-4 98 -27 147 -70 149 -227 237 -396 221 -45 -4 -63 -3 -59 4 4 6 40 14 79 18
157 14 318 85 419 185 184 182 209 449 57 615 -58 63 -112 98 -187 121 l-51
15 0 44 c0 29 -10 63 -33 106 -40 78 -100 120 -171 121 l-46 1 0 94 c0 93 0
93 -25 93 -14 0 -25 4 -25 9 0 4 47 101 105 215 58 114 105 215 105 223 0 16
63 114 107 166 36 44 30 61 -42 112 -36 26 -65 49 -65 51 0 2 13 26 30 52 17
27 30 51 30 54 0 3 -19 10 -42 17 -68 21 -88 38 -88 80 -1 35 -4 39 -103 103
-56 36 -119 74 -141 84 -38 19 -38 19 -56 -4 -23 -28 -26 -28 -101 8 -59 27
-64 28 -81 13 -10 -9 -18 -22 -18 -30 0 -17 -8 -16 -81 4 -70 19 -79 14 -79
-51 l0 -39 -47 8 c-27 5 -66 9 -88 9 -40 1 -40 1 -47 -44 -3 -25 -7 -79 -7
-121 -1 -44 -7 -88 -15 -105 -8 -16 -26 -87 -40 -159 -55 -285 -96 -496 -121
-615 -14 -69 -25 -143 -23 -165 2 -35 0 -40 -20 -43 -20 -3 -22 1 -22 42 0 25
5 78 10 118 26 187 70 567 70 604 0 37 3 43 31 54 54 23 62 46 44 129 -18 86
-26 103 -57 120 -13 7 -32 27 -43 44 -32 50 -120 72 -367 92 l-78 7 0 78 c0
50 4 81 13 88 6 5 78 31 159 56 85 27 151 54 156 63 11 18 -1 81 -23 124 -13
24 -45 51 -57 48 -2 0 -84 -29 -183 -64z m185 -5 c0 -12 -55 -37 -178 -80 -47
-17 -92 -36 -99 -41 -6 -6 -16 -8 -21 -5 -4 2 -19 -13 -32 -35 -27 -42 -47
-46 -42 -8 6 51 32 66 232 135 139 48 140 48 140 34z m-350 -375 c0 -122 -2
-145 -15 -145 -13 0 -15 23 -15 145 0 122 2 145 15 145 13 0 15 -23 15 -145z
m1167 68 c21 -10 40 -18 42 -20 2 -1 -3 -25 -10 -53 -10 -39 -16 -49 -28 -44
-9 4 -27 9 -40 12 -21 4 -23 8 -17 50 3 25 6 51 6 58 0 18 2 18 47 -3z m197
-22 l25 -10 -20 -53 c-11 -29 -32 -84 -46 -123 -14 -38 -33 -88 -44 -110 -34
-75 -71 -170 -84 -220 -38 -141 -41 -146 -82 -129 -29 12 -31 16 -22 41 5 15
48 145 94 288 117 354 114 346 136 335 10 -6 29 -14 43 -19z m-327 -7 c19 -5
23 -11 19 -28 -3 -11 -15 -66 -27 -120 -11 -55 -23 -104 -26 -109 -3 -5 -11
-36 -19 -70 -8 -34 -19 -75 -26 -90 l-11 -28 -24 43 -25 43 37 180 c21 99 39
184 42 188 3 5 12 6 20 3 8 -4 26 -9 40 -12z m-170 -72 c10 -6 10 -27 2 -93
-6 -46 -13 -103 -15 -126 -6 -47 -11 -50 -53 -28 -28 14 -29 16 -25 82 3 37 7
92 10 121 5 51 6 52 37 52 18 0 38 -4 44 -8z m628 -17 c22 -17 25 -24 14 -25
-12 0 -17 -9 -17 -32 0 -41 -16 -82 -41 -109 -10 -11 -22 -34 -25 -51 -3 -17
-12 -36 -19 -42 -15 -12 -67 -130 -67 -150 0 -8 -7 -19 -15 -26 -8 -7 -12 -16
-9 -21 7 -11 -32 -100 -43 -98 -4 1 -21 -3 -36 -9 -16 -7 -30 -12 -32 -12 -8
0 48 147 135 350 48 113 90 215 94 228 9 28 24 28 61 -3z m-1580 -25 c-3 -5
-30 -10 -60 -10 -30 0 -89 -5 -132 -11 -139 -20 -135 -58 8 -79 99 -14 474
-14 549 0 94 17 128 37 98 56 -20 12 -149 33 -210 33 -31 1 -60 6 -63 11 -16
27 282 -2 360 -34 29 -12 32 -18 30 -46 -1 -18 -9 -36 -16 -41 -74 -41 -436
-68 -676 -51 -151 11 -254 29 -273 48 -5 5 -10 23 -12 39 -3 26 2 32 36 49 67
33 378 64 361 36z m1222 -32 c35 -13 45 -41 17 -52 -10 -4 -13 -13 -9 -26 3
-10 0 -30 -7 -42 -7 -13 -11 -27 -10 -31 1 -4 -4 -18 -13 -30 -8 -12 -15 -34
-15 -49 0 -15 -4 -30 -10 -33 -5 -3 -10 -16 -10 -29 0 -12 -3 -26 -7 -29 -3
-4 -8 -21 -10 -38 -1 -16 -9 -42 -16 -56 l-14 -25 -27 24 -27 23 51 190 c63
232 58 215 66 215 4 0 23 -5 41 -12z m-1225 -4 c3 -3 4 -14 1 -25 -5 -17 -12
-18 -77 -13 -140 10 -150 16 -51 29 118 16 121 16 127 9z m353 -13 c64 -9 39
-17 -77 -27 -85 -6 -88 -6 -88 15 0 19 5 21 58 20 31 0 80 -4 107 -8z m1354
-61 c6 0 11 -4 11 -10 0 -11 -48 -94 -90 -155 -15 -22 -43 -73 -61 -112 -19
-40 -40 -73 -46 -73 -7 0 -31 -16 -53 -36 -22 -20 -40 -32 -40 -26 0 10 77
175 175 374 l37 78 28 -20 c16 -11 33 -20 39 -20z m-2155 -26 c20 -52 213 -84
514 -84 291 0 511 30 564 77 24 21 38 8 35 -32 -2 -40 -32 -58 -124 -74 -164
-30 -165 -30 -73 -27 84 4 190 30 190 48 0 5 5 6 10 3 6 -3 10 -15 10 -25 0
-28 -106 -58 -285 -81 -132 -17 -534 -17 -650 0 -188 27 -264 55 -249 89 4 9
9 35 12 57 6 57 32 85 46 49z m1379 -149 c20 -9 37 -23 37 -31 0 -45 47 -133
99 -184 108 -107 257 -128 400 -59 59 29 66 31 105 19 22 -7 52 -18 66 -26
l25 -13 -24 -1 c-13 0 -41 5 -62 11 -35 11 -45 9 -101 -17 -57 -26 -73 -29
-173 -29 -100 0 -115 2 -160 27 -27 14 -69 42 -92 62 -41 36 -103 142 -103
177 0 20 -54 53 -74 46 -7 -3 -16 -25 -20 -49 -4 -23 -13 -72 -21 -108 -8 -36
-26 -123 -40 -195 -14 -71 -28 -141 -31 -154 -5 -21 -3 -23 10 -12 14 12 16
10 16 -14 0 -42 22 -26 53 39 26 53 27 59 13 75 -35 39 -7 103 50 114 13 2 52
-6 87 -18 34 -12 68 -20 75 -17 17 5 15 -13 -3 -28 -9 -7 -28 -10 -52 -6 -32
6 -40 3 -52 -15 -11 -19 -11 -23 3 -31 9 -5 13 -14 10 -20 -5 -8 -1 -9 12 -4
41 17 57 18 94 6 l38 -13 -25 -51 c-13 -28 -28 -59 -34 -68 -15 -28 9 -22 37
10 13 15 34 42 45 60 17 26 27 32 48 30 16 -2 27 -10 29 -22 3 -14 0 -17 -12
-13 -14 5 -16 -3 -16 -55 0 -70 -17 -98 -60 -98 -15 0 -34 8 -44 19 -11 12
-25 16 -43 13 -17 -3 -29 0 -35 11 -6 12 -17 15 -38 11 -25 -6 -30 -3 -36 20
-3 15 -3 39 0 54 12 49 11 66 -4 70 -10 2 -20 -10 -29 -33 -20 -57 -58 -95
-95 -95 -18 0 -37 5 -44 12 -7 7 -12 9 -12 5 0 -5 -7 -40 -14 -80 -8 -40 -16
-85 -18 -102 -2 -22 -8 -30 -23 -30 -17 0 -20 6 -18 40 2 22 12 81 22 130 11
50 34 164 51 255 57 302 70 369 80 395 9 24 11 25 37 12 16 -8 45 -22 66 -32z
m854 -18 c25 -22 21 -41 -7 -32 -13 4 -19 -1 -24 -21 -4 -14 -16 -35 -27 -47
-11 -12 -17 -27 -14 -35 2 -7 1 -11 -4 -7 -5 3 -19 -8 -31 -25 -15 -22 -29
-30 -51 -30 -16 0 -29 5 -29 10 0 9 68 126 120 207 15 23 18 23 67 -20z
m-2178 -67 c13 -7 20 -26 25 -67 19 -173 26 -239 36 -348 14 -146 15 -151 35
-135 19 16 19 77 0 96 -21 21 -19 31 6 30 15 -1 24 9 33 34 7 19 17 43 21 53
5 13 2 17 -13 17 -30 0 -49 -27 -34 -50 13 -21 1 -35 -23 -26 -15 6 -20 42 -9
71 11 27 60 46 104 39 29 -5 47 -2 66 11 35 22 43 11 14 -20 -21 -22 -24 -37
-28 -132 -6 -142 14 -128 25 17 8 101 9 105 32 108 22 4 23 1 18 -32 -5 -29
-3 -34 10 -29 23 9 43 -24 43 -72 0 -84 -37 -138 -78 -116 -11 6 -24 6 -33 0
-7 -5 -27 -9 -42 -9 -28 0 -28 0 -21 51 6 46 5 51 -11 48 -12 -3 -22 -21 -32
-59 -7 -30 -23 -63 -34 -72 l-21 -18 21 -152 c41 -303 47 -378 31 -388 -8 -5
-18 -6 -21 -2 -3 4 -14 59 -23 122 -17 106 -27 178 -70 505 -15 113 -47 366
-61 483 -7 55 -2 62 34 42z m76 -62 c13 -95 21 -218 13 -218 -8 0 -11 19 -27
156 -13 111 -13 114 -2 114 5 0 12 -24 16 -52z m-529 -144 c97 -12 226 -100
279 -189 26 -45 33 -85 15 -85 -5 0 -10 10 -10 23 0 30 -48 105 -91 141 -45
39 -133 78 -161 73 -19 -3 -15 -7 25 -26 56 -26 59 -39 4 -16 -45 19 -47 19
-47 0 0 -8 6 -15 13 -16 6 0 3 -4 -7 -8 -17 -6 -14 -12 27 -46 51 -42 60 -60
26 -50 -22 7 -22 7 1 -26 18 -24 20 -31 8 -27 -10 4 -25 -3 -39 -18 l-22 -24
24 0 c17 -1 5 -11 -46 -37 -38 -20 -65 -38 -58 -40 7 -2 21 0 32 6 27 15 49
15 34 0 -18 -18 -156 -51 -163 -38 -4 6 -18 7 -34 3 -20 -5 -24 -9 -15 -15 16
-9 10 -12 -69 -33 -35 -9 -55 -10 -59 -3 -3 6 -2 8 3 5 5 -3 23 1 39 8 l30 14
-40 -6 c-22 -4 -49 -10 -60 -15 -19 -8 -19 -8 0 -8 35 -2 -1 -23 -52 -32 -26
-4 -57 -11 -68 -15 -12 -4 -17 -3 -12 2 5 5 32 16 60 26 29 9 45 17 36 17 -23
1 -152 -39 -164 -51 -6 -5 2 -5 18 1 38 15 46 13 23 -4 -23 -18 -53 -20 -58
-4 -5 14 -88 2 -88 -13 0 -6 8 -8 18 -5 53 17 67 19 57 9 -8 -8 -111 -42 -129
-42 -3 0 -6 31 -6 70 0 167 118 337 293 423 157 76 260 93 433 71z m1324 -34
c0 -29 4 -38 14 -34 7 3 20 -1 28 -10 12 -12 13 -26 5 -81 -7 -50 -6 -69 2
-75 9 -5 8 -10 -3 -19 -29 -25 -39 -2 -32 75 3 45 2 74 -4 74 -16 0 -30 -37
-30 -79 0 -63 -14 -88 -52 -94 -18 -3 -37 -1 -42 4 -6 5 -17 2 -28 -8 -13 -12
-21 -13 -31 -4 -11 9 -17 8 -27 -4 -8 -9 -21 -13 -32 -9 -10 3 -26 0 -34 -7
-11 -9 -18 -9 -26 -1 -9 9 -16 8 -30 -5 -13 -12 -21 -13 -31 -4 -11 9 -17 8
-27 -4 -9 -11 -16 -12 -25 -5 -9 7 -20 7 -38 -1 -44 -20 -57 -6 -57 56 0 59 9
85 42 121 11 12 18 30 16 39 -3 18 26 44 38 33 3 -4 9 -54 11 -113 3 -58 9
-103 12 -100 3 4 11 41 16 83 8 63 13 77 29 80 18 4 19 -1 12 -78 -4 -47 -3
-79 2 -76 5 3 12 43 16 89 9 106 18 141 39 145 9 2 17 -2 17 -8 0 -7 6 -5 16
4 8 9 22 16 31 16 13 0 15 -9 9 -60 -3 -33 -9 -88 -13 -122 -4 -41 -3 -59 4
-55 6 4 13 32 15 62 6 71 32 108 83 116 l37 6 -5 -36 c-18 -117 -19 -131 -9
-131 18 0 22 15 34 132 10 102 18 127 41 128 4 0 7 -18 7 -40z m-1239 -97 c13
-16 12 -17 -3 -4 -10 7 -18 15 -18 17 0 8 8 3 21 -13z m2092 -73 c-3 -11 0
-26 6 -33 13 -16 5 -27 -19 -27 -12 0 -26 -20 -44 -61 -14 -33 -26 -63 -26
-66 0 -3 11 -2 25 1 14 4 25 2 25 -4 0 -5 -11 -17 -25 -26 -23 -15 -27 -15
-50 0 -31 21 -31 41 0 112 14 32 23 65 19 76 -4 13 0 18 14 18 11 0 22 7 26
15 3 8 16 15 30 15 19 0 23 -4 19 -20z m-1798 -127 c3 -10 3 -19 -2 -20 -21
-8 -32 -21 -50 -64 -25 -56 -50 -64 -125 -37 -50 17 -132 22 -122 7 2 -4 -11
-22 -28 -40 -18 -18 -32 -36 -31 -40 2 -5 -5 -5 -15 -2 -14 6 -15 4 -4 -9 10
-13 10 -17 -4 -22 -28 -11 -65 -7 -80 9 -37 37 -98 27 -154 -25 -16 -15 -38
-31 -47 -35 -12 -5 -14 -9 -5 -12 6 -3 10 -9 6 -14 -9 -16 -53 -10 -97 13 -54
27 -76 38 -80 38 -2 0 -17 -12 -33 -27 -16 -16 -41 -36 -54 -46 -14 -9 -34
-24 -45 -33 l-20 -16 20 7 c16 5 17 4 8 -6 -9 -9 -18 -8 -39 5 -30 20 -96 29
-105 14 -10 -15 -30 27 -23 46 7 17 37 27 159 50 104 20 427 104 580 151 66
20 143 43 170 50 28 8 82 27 120 43 84 36 91 37 100 15z m1334 -14 c40 -14 40
-29 -1 -29 -30 -1 -31 -2 -15 -14 23 -18 22 -35 -3 -29 -14 4 -20 0 -20 -11 0
-9 -8 -16 -20 -16 -21 0 -26 10 -11 26 5 5 14 26 21 47 6 20 13 37 14 37 2 0
17 -5 35 -11z m-1654 -9 c-27 -12 -43 -12 -25 0 8 5 22 9 30 9 10 0 8 -3 -5
-9z m1240 -12 c50 -23 25 -88 -34 -88 -18 0 -21 6 -21 50 0 54 8 60 55 38z
m-75 -49 c0 -22 -6 -32 -25 -41 -49 -22 -78 45 -33 76 30 21 58 4 58 -35z
m-116 25 c23 -23 19 -51 -9 -70 -24 -16 -27 -16 -45 1 -24 22 -25 43 -3 67 20
22 37 23 57 2z m729 -16 l21 -28 -21 -27 c-34 -47 -85 -38 -98 19 -5 19 -1 32
15 48 27 27 57 23 83 -12z m-1202 12 c17 0 18 -3 9 -20 -8 -15 -8 -20 2 -21 7
0 3 -5 -9 -11 -26 -13 -30 -34 -22 -108 35 -296 41 -380 29 -380 -6 0 -10 15
-10 33 0 17 -10 100 -21 182 -11 83 -23 192 -26 244 -5 86 -4 94 12 88 9 -4
25 -7 36 -7z m109 -80 c0 -3 -20 -5 -45 -6 -25 0 -45 3 -45 8 0 5 10 28 21 50
l22 42 23 -44 c13 -25 23 -47 24 -50z m68 71 c3 -10 -1 -12 -14 -7 -13 4 -12
0 6 -13 20 -17 23 -23 14 -38 -13 -21 -55 -24 -61 -5 -3 6 4 12 14 12 17 1 17
1 1 11 -21 12 -23 30 -6 47 16 16 40 12 46 -7z m90 2 c2 -7 -3 -13 -12 -13
-12 0 -15 -8 -14 -29 4 -39 -16 -45 -20 -6 -2 16 -8 33 -14 36 -6 4 -7 12 -3
18 9 15 57 10 63 -6z m112 7 c0 -5 -10 -10 -22 -11 -22 0 -22 -1 2 -11 l25
-10 -22 -9 c-13 -4 -23 -16 -23 -24 0 -9 -4 -13 -10 -10 -5 3 -10 24 -10 46 0
37 2 39 30 39 17 0 30 -4 30 -10z m960 -63 c15 -27 14 -29 -18 -58 -38 -34
-46 -35 -72 -9 -27 27 -26 65 3 85 32 23 69 15 87 -18z m-1523 -38 l2 -44 -14
35 c-17 45 -18 63 -2 58 7 -3 13 -24 14 -49z m1617 10 c31 -24 33 -52 6 -79
-21 -21 -55 -26 -79 -11 -12 7 -11 17 5 60 10 28 23 51 30 51 6 0 23 -9 38
-21z m288 -101 l-4 -111 37 23 c78 48 155 25 198 -59 l27 -55 0 -257 c0 -148
4 -269 10 -284 13 -35 32 -53 75 -71 20 -8 34 -18 31 -23 -10 -16 -114 7 -161
36 -25 15 -57 34 -71 41 l-24 13 0 271 c0 265 -1 272 -22 295 -27 29 -38 29
-73 1 l-28 -22 7 -273 7 -273 -73 0 -73 0 3 378 2 379 -25 25 -26 26 49 12
c27 6 66 17 88 25 21 8 41 14 44 15 3 0 4 -50 2 -112z m-2192 -26 c-25 -20
-61 -53 -81 -72 -20 -19 -50 -48 -66 -63 l-30 -28 -91 21 c-51 11 -106 20
-124 20 -42 0 -78 10 -78 21 0 13 136 11 203 -2 30 -6 66 -9 79 -5 13 3 68 39
123 80 101 76 147 95 65 28z m1512 -730 c12 -2 19 5 23 22 17 83 17 82 25 61
6 -14 9 -1 9 41 2 146 68 218 232 256 l49 11 0 51 c0 58 -17 99 -43 104 -9 2
-42 -8 -72 -22 -41 -19 -59 -34 -72 -60 -19 -41 -29 -45 -38 -15 -21 65 32
131 133 169 103 39 179 20 213 -53 17 -38 19 -68 19 -298 0 -188 3 -259 13
-272 6 -9 35 -22 62 -29 63 -15 72 -23 54 -44 -11 -14 -25 -15 -80 -10 -111
10 -178 49 -191 111 -3 17 -6 16 -22 -11 -54 -91 -184 -84 -235 13 l-20 38 -1
-33 c-1 -81 -50 -132 -129 -132 -32 0 -43 5 -61 29 -20 29 -20 41 -20 375 0
332 -1 347 -20 366 -26 26 -25 27 8 33 15 2 52 14 82 25 l55 20 5 -371 c5
-341 6 -372 22 -375z m-232 309 l0 -389 27 -18 28 -18 -30 -12 c-66 -29 -120
-11 -151 49 -15 28 -16 68 -11 356 l5 324 -25 23 c-18 17 -22 25 -12 27 8 2
41 13 74 24 106 36 95 77 95 -366z m343 363 c50 -17 60 -36 28 -54 -29 -15
-57 -68 -72 -132 -6 -32 -16 -58 -21 -58 -4 0 -8 59 -8 130 0 145 -3 140 73
114z m-1368 -90 c-1 -65 -42 -138 -89 -158 -62 -26 -81 -27 -34 -1 61 32 96
80 104 138 6 45 6 47 -18 47 -14 0 -55 -15 -92 -33 -36 -19 -66 -30 -66 -26 0
4 30 22 68 39 37 17 74 35 82 40 32 20 45 7 45 -46z m87 -98 c9 -55 9 -70 -3
-81 -19 -18 -127 -72 -162 -80 -31 -8 -62 -47 -54 -68 4 -10 -13 -13 -77 -11
-72 2 -81 4 -84 22 -3 17 13 25 105 57 59 21 125 47 146 57 46 23 83 80 92
142 10 62 23 48 37 -38z m-354 67 c-44 -93 -53 -104 -78 -99 -14 3 -53 9 -88
12 -34 4 -65 11 -68 15 -2 5 21 16 53 24 32 9 83 25 113 35 65 21 73 22 68 13z
m1095 -150 c-2 -71 -4 -207 -5 -304 l-3 -176 -34 -50 c-19 -28 -57 -66 -85
-84 -46 -31 -58 -34 -123 -34 -64 0 -74 3 -93 25 -48 54 -52 80 -50 315 4 288
5 273 -25 281 -34 9 -31 21 8 29 17 4 59 16 91 26 33 10 61 19 63 19 1 0 3
-120 3 -268 0 -226 2 -271 16 -290 31 -44 74 -19 92 53 5 22 10 144 11 271 2
198 0 232 -13 243 -20 16 -12 31 17 32 12 0 40 9 62 19 72 33 70 35 68 -107z
m-1788 80 c-38 -8 -73 -20 -77 -26 -5 -7 -8 -4 -8 10 0 24 18 30 105 31 l50 0
-70 -15z m732 -15 c-17 -47 -46 -71 -113 -97 -96 -37 -103 -41 -59 -35 75 12
23 -12 -90 -41 -334 -85 -368 -91 -408 -81 -36 9 -64 38 -86 90 l-21 47 26 9
c14 6 33 10 42 10 37 0 144 25 245 57 60 19 110 33 113 31 2 -3 -22 -13 -54
-23 -73 -24 -43 -32 41 -11 79 20 108 20 182 0 107 -29 102 -30 140 11 19 20
33 40 30 45 -3 5 1 11 7 13 7 3 14 6 15 6 1 1 -4 -14 -10 -31z m-2 -98 c-22
-10 -51 -18 -65 -18 -16 0 -6 6 30 18 70 24 86 24 35 0z m325 -42 c0 -32 11
-35 47 -11 35 23 121 23 157 -1 16 -10 40 -43 54 -74 26 -54 27 -65 27 -212 0
-128 -3 -164 -19 -206 -42 -112 -123 -188 -235 -219 -31 -9 -82 -26 -113 -39
-49 -21 -56 -22 -49 -8 5 9 12 160 16 334 l7 317 -26 24 c-14 13 -26 27 -26
30 0 2 15 8 33 11 34 6 75 42 97 85 10 19 14 21 21 10 5 -8 9 -26 9 -41z
m-440 -123 c0 -36 2 -65 5 -65 2 0 21 11 41 25 74 50 140 29 184 -58 33 -66
39 -129 15 -161 -12 -16 -12 -23 7 -59 30 -60 22 -180 -17 -259 -54 -111 -130
-166 -282 -203 -117 -30 -116 -30 -105 -7 12 22 22 515 13 600 -5 50 -12 68
-29 81 l-23 17 37 17 c35 17 36 19 31 63 -4 41 -3 45 22 50 14 3 37 10 51 14
48 16 50 14 50 -55z m2647 13 c41 -44 51 -65 57 -124 6 -51 -10 -115 -31 -121
-6 -2 -24 13 -39 33 -26 34 -29 45 -32 140 -3 59 0 104 5 104 5 0 23 -15 40
-32z m122 -7 c11 -11 25 -39 32 -63 28 -105 -20 -238 -121 -332 -85 -78 -223
-140 -260 -116 -21 13 -6 25 63 49 114 39 205 115 251 207 31 61 36 168 11
227 -8 20 -15 39 -15 42 0 11 21 4 39 -14z m-2974 -27 c-7 -20 -11 -46 -10
-58 1 -11 3 -96 4 -188 1 -147 3 -167 17 -161 12 4 14 0 8 -23 -4 -16 -11 -33
-15 -38 -5 -6 -9 -88 -9 -183 0 -169 1 -174 22 -182 18 -6 9 -13 -61 -46 -45
-21 -86 -44 -92 -52 -17 -20 -31 -16 -19 6 14 26 14 361 0 361 -20 0 -80 -29
-126 -60 l-45 -32 3 -173 3 -174 -27 -15 c-32 -20 -129 -98 -183 -148 -22 -21
-43 -38 -47 -38 -4 0 12 39 36 88 53 105 68 176 64 302 l-3 95 -31 -32 c-39
-40 -71 -53 -132 -53 -88 1 -181 62 -223 148 -20 41 -23 62 -23 157 0 97 3
117 26 166 84 183 311 288 471 220 60 -26 53 -42 -13 -34 -140 16 -296 -61
-355 -177 -54 -107 -52 -213 5 -304 61 -95 134 -110 240 -48 l65 37 7 89 c7
80 24 155 64 274 33 101 101 199 157 229 27 14 208 79 228 82 4 1 1 -15 -6
-35z m-450 -253 c9 -16 -17 -152 -31 -158 -7 -2 -21 0 -32 6 -13 7 -22 7 -30
-1 -17 -17 -15 -35 7 -66 11 -15 23 -43 26 -63 6 -29 2 -41 -18 -65 -23 -26
-31 -29 -86 -29 -88 0 -97 12 -93 128 3 76 8 100 29 139 16 29 33 48 44 48 9
0 19 7 23 15 6 18 45 35 101 45 22 4 43 8 47 9 4 0 9 -3 13 -8z m3124 -20 c36
-16 77 -33 91 -38 l25 -10 -35 -22 c-59 -36 -132 -59 -200 -62 l-65 -4 3 65
c5 99 6 100 64 100 35 0 73 -9 117 -29z m-504 -162 l7 -31 22 21 c30 28 40 26
20 -4 -16 -25 -16 -25 12 -26 l29 0 -25 -11 c-24 -10 -24 -10 -5 -18 19 -9 19
-9 -2 -16 -13 -3 -23 -11 -23 -17 0 -7 -4 -7 -12 1 -10 10 -16 8 -31 -10 l-18
-23 6 24 c7 22 5 23 -19 17 -28 -7 -34 2 -14 22 9 9 9 12 -2 12 -10 1 -8 7 8
19 12 11 22 30 22 45 0 36 17 33 25 -5z m-190 -14 c18 -18 25 -35 25 -65 0
-60 -46 -105 -126 -124 l-61 -14 -7 52 c-3 28 -6 77 -6 108 0 65 1 65 93 67
49 1 62 -3 82 -24z m-287 -26 c66 -23 80 -91 31 -157 -40 -55 -94 -73 -145
-49 -101 49 -48 197 77 216 3 1 20 -4 37 -10z m-239 -93 c32 -32 32 -84 0
-130 -28 -42 -48 -54 -98 -62 -36 -6 -44 -3 -71 24 -23 23 -30 40 -30 68 0 44
31 98 68 119 38 22 99 13 131 -19z m-249 -43 c0 -24 -6 -30 -47 -43 -54 -17
-74 -46 -27 -38 16 3 36 8 45 12 12 5 18 1 22 -15 8 -30 5 -33 -43 -49 -40
-13 -42 -15 -37 -47 5 -30 3 -35 -20 -44 -14 -5 -27 -8 -29 -6 -5 5 -23 144
-24 178 0 23 7 30 53 47 46 18 73 27 100 31 4 0 7 -11 7 -26z m-310 -102 c0
-24 -6 -31 -31 -40 -28 -10 -31 -14 -26 -43 20 -117 20 -113 -9 -127 -14 -6
-28 -10 -29 -9 -2 2 -7 35 -12 73 l-8 70 -31 -3 c-25 -2 -33 1 -37 20 -4 12
-5 24 -3 25 4 4 168 61 179 62 4 1 7 -12 7 -28z m1800 -22 c47 -12 78 -34 65
-48 -7 -7 -26 -6 -59 4 -59 18 -140 19 -202 4 -58 -15 -79 0 -39 27 48 31 141
37 235 13z m-2033 -65 c5 -15 -26 -46 -38 -38 -14 8 -59 -4 -59 -16 0 -6 19
-10 43 -10 46 0 87 -22 87 -46 0 -57 -72 -111 -133 -100 -58 11 -42 56 19 56
17 0 37 7 44 15 11 13 6 15 -32 15 -50 0 -88 22 -88 52 0 11 16 36 35 55 30
30 40 34 76 31 23 -2 44 -8 46 -14z m1497 -15 c27 -32 34 -31 73 4 22 19 22
19 49 -2 15 -11 32 -21 39 -21 16 0 27 -28 20 -50 -4 -11 5 -21 31 -33 19 -10
32 -12 29 -7 -5 8 9 10 42 8 l48 -3 5 -60 5 -60 38 3 c34 3 37 1 37 -21 0 -29
-23 -52 -45 -43 -13 5 -14 2 -4 -17 7 -12 22 -29 34 -39 27 -21 49 -72 41 -93
-3 -9 -18 -15 -36 -15 -29 0 -30 -2 -30 -42 0 -27 3 -38 9 -30 9 15 24 1 35
-35 8 -25 -16 -43 -57 -43 -30 0 -40 -21 -31 -65 8 -46 -25 -80 -69 -71 -41 8
-117 -40 -96 -61 29 -29 -44 -63 -79 -37 -27 21 -59 16 -86 -11 -22 -22 -29
-24 -47 -14 -12 6 -24 19 -26 29 -7 25 -50 35 -69 15 -27 -27 -51 -36 -61 -22
-14 17 -32 74 -27 80 3 3 -8 14 -24 26 -25 18 -31 19 -36 6 -8 -23 -40 -18
-66 10 -21 23 -22 28 -12 64 16 52 17 51 -27 51 -21 0 -44 6 -51 15 -15 18 -4
52 21 65 16 9 21 7 29 -12 10 -23 10 -23 5 2 -2 14 -5 39 -5 56 0 30 -2 32
-32 30 -29 -1 -33 3 -36 25 -3 25 19 59 39 59 5 0 9 -8 10 -17 1 -16 17 27 34
91 5 19 5 19 -5 4 -21 -35 -50 -16 -50 33 0 12 9 21 28 25 51 11 52 12 52 58
0 62 20 80 81 72 47 -6 47 -6 54 26 14 64 20 69 63 51 20 -8 40 -19 43 -25 3
-5 18 9 34 32 15 22 33 40 40 40 7 0 25 -14 39 -31z m-1748 -101 c15 -24 40
-63 56 -87 16 -24 28 -44 26 -46 -2 -1 -14 -8 -27 -15 -21 -11 -26 -10 -36 3
-10 14 -18 14 -48 5 -23 -7 -37 -18 -37 -28 0 -8 -13 -24 -30 -33 l-30 -18 0
39 c0 21 4 52 9 68 5 16 14 55 21 86 12 54 20 63 57 67 7 0 25 -18 39 -41z
m2257 26 c50 -26 76 -54 88 -97 11 -42 5 -87 -11 -87 -6 0 -10 16 -10 35 0 90
-64 128 -152 90 -13 -5 -21 0 -29 18 -6 14 -9 33 -6 41 8 21 78 21 120 0z
m173 -59 c18 -43 18 -116 0 -158 -19 -44 -54 -74 -114 -97 -51 -20 -52 -20
-62 0 -9 16 -8 20 5 20 29 0 93 39 116 72 19 26 24 46 25 113 1 44 2 81 3 83
4 9 14 -3 27 -33z m-2606 -15 c0 -10 -17 -22 -42 -31 -41 -15 -69 -42 -56 -54
4 -4 22 1 42 10 38 18 56 14 56 -14 0 -10 -17 -25 -43 -38 -40 -19 -43 -23
-39 -55 3 -29 0 -36 -22 -46 -23 -10 -26 -9 -31 11 -12 58 -26 179 -21 185 4
3 37 20 74 37 67 32 81 31 82 -5z m1485 -23 c-11 -6 -68 -24 -127 -38 -112
-28 -294 -108 -304 -133 -3 -8 -17 -17 -32 -21 -39 -10 -66 -36 -50 -48 10 -6
8 -7 -4 -4 -10 4 -27 -6 -45 -26 -15 -17 -80 -81 -143 -141 -187 -180 -290
-290 -285 -303 5 -15 -4 -16 -24 -4 -17 11 -1 38 87 142 174 207 293 325 414
412 153 109 328 172 488 175 39 1 42 0 25 -11z m-645 -62 c0 -6 -148 -115
-166 -122 -7 -3 -12 -9 -9 -13 6 -9 -14 -27 -35 -32 -8 -2 -20 -10 -27 -19
-14 -18 -198 -145 -258 -177 -120 -64 -278 -114 -350 -111 -25 2 -45 4 -45 6
0 2 14 10 31 17 l31 13 -48 7 c-80 11 -89 26 -16 26 97 0 224 35 347 96 109
54 149 78 301 184 117 81 244 146 244 125z m-320 -104 c0 -11 -133 -97 -205
-134 -128 -64 -273 -107 -362 -107 -79 0 -65 16 49 55 62 21 201 74 308 116
207 83 210 84 210 70z m887 -51 c-3 -23 -1 -57 5 -76 5 -20 8 -37 6 -39 -2 -2
-30 5 -63 16 -81 27 -177 22 -265 -14 -35 -14 -66 -24 -69 -21 -26 25 286 173
368 174 22 0 23 -3 18 -40z m-1868 -160 c13 -24 41 -67 62 -96 54 -70 53 -93
-1 -54 -74 53 -185 280 -136 280 7 0 20 7 27 17 12 14 15 9 19 -43 3 -33 16
-78 29 -104z m1808 5 c18 -8 33 -15 33 -17 0 -2 -51 -3 -113 -3 -100 0 -120
-3 -168 -25 -30 -14 -55 -28 -57 -32 -2 -5 -9 -8 -15 -8 -7 0 -77 -61 -157
-135 -80 -75 -172 -154 -205 -176 -95 -63 -180 -81 -222 -47 -29 23 -13 33 48
30 95 -6 144 25 331 205 165 159 229 202 328 223 55 11 152 4 197 -15z m-82
-131 c13 -5 7 -12 -27 -29 -60 -30 -88 -74 -88 -142 0 -29 7 -70 15 -90 32
-76 1 -82 -36 -7 -17 36 -20 58 -17 114 4 79 24 114 79 142 37 20 49 21 74 12z
m89 -79 c-1 -5 -16 -17 -35 -26 -18 -9 -39 -30 -46 -45 l-12 -29 -1 37 c0 28
6 41 27 58 27 21 69 24 67 5z m128 -117 c-11 -42 -52 -86 -89 -99 -44 -14 -54
-5 -15 15 28 14 58 45 91 94 19 27 22 23 13 -10z"/>
<path d="M2840 4020 c-8 -5 -10 -10 -5 -10 6 0 17 5 25 10 8 5 11 10 5 10 -5
0 -17 -5 -25 -10z"/>
<path d="M2765 4000 c-7 -12 12 -12 40 0 18 8 17 9 -7 9 -15 1 -30 -3 -33 -9z"/>
<path d="M3177 3473 c-9 -8 -9 -58 0 -66 6 -6 53 54 53 67 0 8 -45 7 -53 -1z"/>
<path d="M3318 3343 c-23 -27 -48 -80 -41 -87 15 -15 30 -3 51 39 12 25 22 50
22 55 0 15 -15 12 -32 -7z"/>
<path d="M3407 3236 c-15 -22 -15 -25 -1 -37 19 -15 34 2 34 39 0 29 -14 28
-33 -2z"/>
<path d="M2081 3362 c-14 -43 -9 -64 10 -45 6 6 9 28 7 49 l-3 39 -14 -43z"/>
<path d="M2206 3334 c-3 -9 -6 -36 -6 -61 0 -68 24 -50 28 20 3 54 -9 76 -22
41z"/>
<path d="M1401 3511 c-17 -11 -8 -39 15 -48 11 -4 22 1 31 13 12 16 11 20 -4
31 -20 15 -24 16 -42 4z"/>
<path d="M1265 3490 c-4 -6 -1 -17 5 -25 6 -8 9 -19 6 -24 -11 -17 15 -24 30
-9 12 12 13 20 3 41 -13 28 -33 35 -44 17z"/>
<path d="M1143 3434 c-8 -21 13 -42 28 -27 13 13 5 43 -11 43 -6 0 -13 -7 -17
-16z"/>
<path d="M1376 3414 c-8 -21 1 -34 25 -34 24 0 25 26 0 39 -15 8 -20 7 -25 -5z"/>
<path d="M1023 3383 c-21 -7 -15 -33 7 -33 11 0 20 6 20 14 0 18 -11 25 -27
19z"/>
<path d="M1244 3359 c-10 -17 23 -46 37 -32 7 7 9 19 6 27 -7 18 -33 21 -43 5z"/>
<path d="M1369 3334 c-9 -11 -9 -18 -1 -26 14 -14 42 -3 42 16 0 20 -27 27
-41 10z"/>
<path d="M910 3315 c0 -8 7 -15 15 -15 8 0 15 7 15 15 0 8 -7 15 -15 15 -8 0
-15 -7 -15 -15z"/>
<path d="M1133 3304 c-3 -8 -1 -20 6 -27 14 -14 47 15 37 32 -10 16 -36 13
-43 -5z"/>
<path d="M1024 3266 c-7 -19 3 -36 22 -36 10 0 14 8 12 22 -4 26 -26 36 -34
14z"/>
<path d="M853 3214 c-7 -18 11 -39 26 -30 17 11 13 46 -4 46 -9 0 -18 -7 -22
-16z"/>
<path d="M2525 3443 c-13 -33 -19 -179 -6 -168 6 6 14 50 17 98 7 85 3 105
-11 70z"/>
<path d="M2642 3413 c-5 -10 -12 -42 -15 -70 -5 -42 -3 -53 8 -53 9 0 16 15
20 38 3 20 8 49 10 64 5 32 -10 46 -23 21z"/>
<path d="M2339 3365 c-14 -21 -21 -115 -10 -115 7 0 14 6 17 14 7 19 0 113 -7
101z"/>
<path d="M2727 3163 c-4 -3 -7 -17 -7 -31 0 -18 4 -23 16 -18 9 3 18 6 20 6 2
0 4 6 4 14 0 17 -24 38 -33 29z"/>
<path d="M2620 3131 c0 -27 19 -36 37 -18 18 18 9 37 -18 37 -12 0 -19 -7 -19
-19z"/>
<path d="M2516 3134 c-7 -19 1 -34 19 -34 21 0 28 19 15 35 -16 19 -26 19 -34
-1z"/>
<path d="M3231 3131 c-19 -12 -4 -51 19 -51 10 0 21 9 25 20 11 34 -12 51 -44
31z"/>
<path d="M3353 3074 c-3 -8 1 -22 9 -30 12 -12 17 -12 33 -1 23 17 14 47 -15
47 -11 0 -23 -7 -27 -16z"/>
<path d="M3479 3019 c-8 -15 -8 -24 0 -32 15 -15 46 16 38 37 -9 22 -24 20
-38 -5z"/>
<path d="M3390 2483 c-39 -32 -52 -64 -51 -126 0 -50 20 -93 47 -104 9 -3 29
7 48 26 33 32 33 32 33 131 0 97 -1 100 -23 100 -12 0 -37 -12 -54 -27z"/>
<path d="M1208 2473 c6 -2 18 -2 25 0 6 3 1 5 -13 5 -14 0 -19 -2 -12 -5z"/>
<path d="M1043 2433 c9 -2 23 -2 30 0 6 3 -1 5 -18 5 -16 0 -22 -2 -12 -5z"/>
<path d="M2012 2424 c-22 -15 -22 -18 -22 -257 0 -134 5 -249 10 -257 16 -25
73 40 98 113 19 52 22 84 22 197 0 120 -2 139 -21 170 -33 54 -49 61 -87 34z"/>
<path d="M1553 2273 c-23 -15 -23 -17 -23 -269 0 -247 1 -254 20 -254 72 0
132 188 96 303 -12 40 -12 59 -3 104 10 48 9 58 -8 91 -22 41 -49 49 -82 25z"/>
<path d="M1146 2248 c-55 -73 -126 -280 -126 -367 l0 -48 80 41 80 41 0 183
c0 100 -2 182 -4 182 -3 0 -16 -15 -30 -32z"/>
<path d="M3203 1903 c-14 -5 -18 -89 -5 -97 4 -2 22 2 40 11 62 30 28 112 -35
86z"/>
<path d="M2926 1838 c-20 -28 -20 -52 0 -72 21 -21 36 -20 63 5 16 15 21 30
19 52 -3 28 -7 32 -35 35 -23 2 -35 -3 -47 -20z"/>
<path d="M2656 1768 c-34 -49 -8 -100 42 -82 32 11 52 57 36 82 -17 27 -59 27
-78 0z"/>
<path d="M3568 1523 c7 -3 16 -2 19 1 4 3 -2 6 -13 5 -11 0 -14 -3 -6 -6z"/>
<path d="M3395 1484 c-76 -19 -130 -51 -184 -109 -66 -72 -86 -124 -85 -225 0
-110 28 -185 93 -250 101 -101 248 -136 383 -91 78 26 155 97 195 180 24 50
28 67 27 156 0 85 -3 107 -24 150 -72 149 -243 229 -405 189z m144 -48 c18
-21 3 -43 -30 -44 -26 -1 -29 2 -23 21 11 36 34 46 53 23z m-119 -15 c0 -5 3
-16 6 -25 4 -12 0 -16 -15 -16 -12 0 -21 4 -21 9 0 5 -3 16 -6 25 -4 12 0 16
15 16 12 0 21 -4 21 -9z m205 -11 c9 -15 -4 -50 -19 -50 -6 0 -17 5 -24 12 -9
9 -8 16 6 29 20 21 28 23 37 9z m-261 -26 c9 -22 -1 -34 -30 -34 -17 0 -24 6
-24 18 0 10 3 22 7 25 12 13 41 7 47 -9z m317 -14 c4 -33 3 -70 -2 -70 -11 0
-41 51 -34 58 3 4 11 0 16 -8 8 -11 9 -10 4 8 -4 13 -2 22 4 22 6 0 12 -4 12
-10z m-388 -53 c-3 -5 -14 0 -25 11 -12 12 -17 25 -13 32 6 9 13 6 26 -11 9
-13 15 -27 12 -32z m421 -9 c-4 -6 -10 -5 -15 3 -14 22 -10 33 6 19 8 -7 12
-17 9 -22z m-215 -22 c-1 -30 -1 -30 -9 -6 -6 20 -8 15 -9 -25 -1 -33 -4 -45
-10 -35 -7 12 -8 62 -2 102 1 4 8 5 16 2 9 -4 15 -18 14 -38z m28 -8 c-3 -7
-5 -2 -5 12 0 14 2 19 5 13 2 -7 2 -19 0 -25z m-267 1 c0 -18 -26 -27 -43 -15
-25 19 -21 25 13 23 16 -1 30 -5 30 -8z m174 -7 c3 -5 2 -20 -2 -33 -8 -29
-42 -36 -35 -8 3 10 9 16 14 13 5 -3 9 0 9 6 0 6 -10 10 -22 8 -17 -2 -24 -11
-26 -30 -2 -16 -8 -28 -13 -28 -15 0 -10 42 8 62 17 18 58 25 67 10z m236 -37
c0 -16 6 -25 15 -25 11 0 15 -12 15 -45 0 -54 -20 -61 -21 -7 -1 20 -3 28 -6
17 -2 -11 -6 -29 -8 -40 -2 -12 -12 -21 -22 -21 -10 0 -28 -4 -41 -8 -22 -7
-23 -6 -20 41 3 43 5 48 28 48 17 0 26 -7 32 -25 5 -16 6 -6 3 26 -3 28 -2 53
2 57 13 14 23 6 23 -18z m-100 -70 c0 -45 -4 -65 -12 -66 -7 0 -22 -2 -33 -4
-62 -11 -60 -12 -60 30 0 27 4 39 13 38 6 -2 12 2 12 7 0 6 4 10 9 10 6 0 12
-17 14 -37 3 -28 4 -23 5 20 2 53 14 74 25 45 3 -8 6 -6 6 5 1 9 6 17 11 17 6
0 10 -28 10 -65z m-120 -28 c0 -52 -12 -77 -37 -77 -7 0 -13 8 -14 18 0 14 -2
13 -11 -5 -6 -12 -19 -23 -29 -26 -15 -4 -19 0 -19 21 l-1 27 -14 -30 c-7 -16
-14 -24 -14 -17 -1 17 -31 15 -31 -3 0 -8 -5 -15 -11 -15 -6 0 -8 8 -6 18 3 9
8 33 11 53 7 41 18 53 59 63 23 5 27 3 27 -14 0 -11 6 -20 14 -20 8 0 17 -8
19 -17 3 -10 5 -1 6 19 1 38 15 58 24 36 3 -8 6 -6 6 5 1 9 6 17 11 17 6 0 10
-24 10 -53z m330 2 c0 -24 -23 -21 -28 4 -2 10 3 17 12 17 10 0 16 -9 16 -21z
m-572 -1 c-6 -18 -28 -21 -28 -4 0 9 7 16 16 16 9 0 14 -5 12 -12z m454 -82
c7 4 8 2 4 -4 -11 -18 -26 -14 -25 6 0 10 3 12 6 4 2 -6 10 -9 15 -6z m-34
-25 c3 -18 -1 -22 -19 -19 -12 2 -24 9 -27 17 -3 9 2 11 17 6 21 -6 30 9 11
18 -6 3 -5 4 2 3 7 -1 14 -13 16 -25z m-68 10 c0 -5 -7 -11 -15 -15 -15 -5
-20 5 -8 17 9 10 23 9 23 -2z m-40 -12 c0 -11 -25 -39 -35 -39 -3 0 -3 6 2 13
4 6 8 15 9 20 3 15 4 17 14 17 6 0 10 -5 10 -11z m-74 -16 c-10 -10 -46 -11
-46 -1 0 4 12 8 27 8 14 0 23 -3 19 -7z m124 -2 c0 -12 -20 -25 -27 -18 -7 7
6 27 18 27 5 0 9 -4 9 -9z m144 -33 c8 -14 7 -21 -5 -33 -14 -14 -17 -14 -33
4 -21 23 -14 54 10 49 9 -2 22 -11 28 -20z m-424 0 c-1 -15 -24 -48 -34 -48
-11 0 -7 35 6 48 16 16 28 15 28 0z m120 2 c0 -5 -9 -14 -20 -20 -14 -7 -20
-7 -20 0 0 5 5 10 11 10 5 0 7 5 4 10 -3 6 1 10 9 10 9 0 16 -4 16 -10z m-70
-39 c0 -5 2 -15 5 -23 3 -7 1 -19 -4 -27 -8 -12 -12 -12 -25 -2 -12 10 -13 17
-4 37 11 24 28 33 28 15z m318 -15 c5 -25 -12 -39 -37 -31 -24 7 -27 25 -9 43
17 17 42 11 46 -12z m-250 -25 c12 -7 11 -13 -2 -37 l-15 -29 -1 26 c0 14 -5
30 -12 37 -9 9 -9 12 3 12 7 0 20 -4 27 -9z m177 -21 c0 -31 -31 -39 -40 -11
-8 26 2 43 23 39 11 -2 17 -13 17 -28z m-69 8 c4 -6 2 -14 -4 -16 -7 -2 -12
-10 -12 -18 0 -8 -4 -14 -10 -14 -5 0 -10 14 -10 30 0 31 22 42 36 18z"/>
<path d="M3330 1380 c0 -5 5 -10 10 -10 6 0 10 5 10 10 0 6 -4 10 -10 10 -5 0
-10 -4 -10 -10z"/>
<path d="M3602 1150 c1 -16 5 -30 9 -30 4 0 7 14 7 30 -1 17 -5 30 -9 30 -4 0
-7 -13 -7 -30z"/>
<path d="M3491 1134 c0 -11 3 -14 6 -6 3 7 2 16 -1 19 -3 4 -6 -2 -5 -13z"/>
<path d="M3294 1125 c-3 -8 -4 -20 -2 -27 3 -7 7 -1 10 15 6 29 1 36 -8 12z"/>
<path d="M3420 1106 c0 -31 6 -34 13 -6 3 11 1 23 -4 26 -5 3 -9 -6 -9 -20z"/>
<path d="M3680 965 c0 -8 5 -15 10 -15 6 0 10 7 10 15 0 8 -4 15 -10 15 -5 0
-10 -7 -10 -15z"/>
<path d="M3625 929 c-10 -15 3 -25 16 -12 7 7 7 13 1 17 -6 3 -14 1 -17 -5z"/>
<path d="M3560 886 c0 -9 5 -16 10 -16 6 0 10 4 10 9 0 6 -4 13 -10 16 -5 3
-10 -1 -10 -9z"/>
<path d="M1678 1395 c-6 -27 -1 -30 21 -16 8 5 11 16 8 25 -9 24 -24 19 -29
-9z"/>
<path d="M1668 913 c7 -3 16 -2 19 1 4 3 -2 6 -13 5 -11 0 -14 -3 -6 -6z"/>
<path d="M1735 4481 c-22 -10 -59 -26 -83 -36 -143 -61 -150 -264 -11 -327 27
-13 49 -26 49 -29 0 -4 -20 -19 -44 -33 -66 -39 -122 -108 -147 -183 -39 -119
-6 -191 108 -236 39 -15 90 -44 114 -65 43 -36 44 -36 25 -7 -27 43 -63 72
-126 105 -102 52 -113 84 -69 200 35 92 87 156 221 273 45 40 59 77 29 77 -14
0 -21 -6 -21 -20 0 -23 -46 -50 -85 -50 -56 0 -105 58 -105 125 0 63 53 135
100 135 14 0 41 11 60 25 42 31 64 31 114 2 53 -29 78 -74 81 -145 2 -31 3
-59 4 -61 1 -3 8 4 16 15 22 29 19 122 -5 161 -46 76 -149 110 -225 74z"/>
<path d="M3150 4455 c0 -22 4 -26 23 -23 14 2 22 10 22 23 0 13 -8 21 -22 23
-19 3 -23 -1 -23 -23z"/>
<path d="M2846 4415 c-14 -13 -26 -29 -26 -35 0 -5 -9 -10 -20 -10 -25 0 -40
-29 -40 -79 0 -52 39 -86 85 -76 34 8 48 8 90 0 70 -15 105 67 65 150 -36 74
-104 96 -154 50z m99 -29 c14 -10 19 -25 19 -55 -1 -34 1 -39 12 -30 23 19 17
-28 -6 -51 -24 -24 -49 -26 -65 -4 -11 15 -14 15 -38 0 -21 -15 -29 -15 -47
-4 -22 14 -34 45 -28 75 3 14 12 18 41 16 35 -2 37 -1 31 22 -3 13 -3 29 1 34
9 16 58 13 80 -3z"/>
<path d="M2126 4404 c-3 -9 -6 -33 -6 -55 0 -32 4 -39 19 -39 21 0 31 19 31
59 0 42 -32 67 -44 35z"/>
<path d="M2626 4315 c-32 -33 22 -69 56 -38 13 12 15 20 7 34 -12 23 -42 25
-63 4z"/>
<path d="M1277 4313 c-12 -11 -8 -23 8 -23 8 0 15 7 15 15 0 16 -12 20 -23 8z"/>
<path d="M1360 4304 c0 -17 22 -14 28 4 2 7 -3 12 -12 12 -9 0 -16 -7 -16 -16z"/>
<path d="M1170 4290 c-8 -5 -58 -16 -110 -26 -52 -9 -126 -27 -165 -39 -38
-12 -83 -25 -99 -29 -22 -5 -26 -10 -17 -19 9 -9 27 -6 79 11 59 20 227 62
321 80 19 4 33 12 33 17 -1 13 -23 16 -42 5z"/>
<path d="M1090 4181 c-172 -37 -400 -106 -400 -123 0 -4 -13 -8 -29 -8 -17 0
-32 -4 -36 -9 -9 -16 10 -21 41 -11 180 61 337 110 369 115 38 6 204 39 253
50 12 3 22 10 22 15 0 15 -28 11 -220 -29z"/>
<path d="M684 4159 c-3 -6 -2 -15 2 -19 12 -12 38 5 30 19 -9 14 -23 14 -32 0z"/>
<path d="M1288 4125 c-3 -3 -63 -14 -134 -24 -168 -25 -229 -40 -309 -76 -16
-7 -59 -23 -95 -36 -93 -32 -130 -48 -130 -57 0 -18 14 -21 39 -8 72 39 334
124 417 135 96 14 226 40 232 46 3 3 1 10 -4 15 -6 6 -13 8 -16 5z"/>
<path d="M1444 4065 c-3 -13 -26 -41 -51 -61 -38 -31 -49 -35 -63 -26 -10 6
-40 14 -67 17 -105 13 -189 -72 -180 -183 4 -62 27 -98 83 -129 88 -51 186
-17 236 81 23 45 19 112 -8 154 -15 23 -15 25 18 53 18 15 48 35 66 44 33 16
41 42 20 63 -20 20 -47 14 -54 -13z m-165 -124 c10 -7 6 -11 -17 -15 -22 -5
-29 -12 -25 -25 7 -25 -23 -51 -59 -51 -30 0 -31 0 -26 -45 7 -54 2 -57 -17
-11 -19 44 -4 96 36 130 31 26 81 34 108 17z"/>
<path d="M955 3965 c-100 -28 -229 -75 -271 -100 -39 -23 -44 -30 -44 -63 l0
-37 19 30 c26 43 53 59 172 99 115 38 199 72 199 81 0 8 -20 5 -75 -10z"/>
<path d="M910 3851 c-130 -42 -200 -84 -200 -120 0 -10 10 -5 33 16 20 20 58
39 102 53 134 42 168 55 173 68 5 17 -12 15 -108 -17z"/>
<path d="M1590 3779 c0 -24 23 -50 59 -69 21 -10 60 -43 86 -72 l47 -53 -17
40 c-8 21 -23 48 -33 58 -26 29 -142 107 -142 96z"/>
<path d="M904 3746 c-87 -32 -196 -98 -182 -111 3 -4 39 11 80 33 40 22 100
48 133 57 33 10 67 23 75 31 12 12 10 14 -15 13 -17 -1 -57 -11 -91 -23z"/>
<path d="M995 3670 c-11 -5 -42 -18 -69 -30 -27 -11 -47 -22 -45 -25 8 -8 153
41 157 53 4 14 -14 15 -43 2z"/>
<path d="M4298 3582 c-3 -51 -12 -89 -25 -112 l-20 -35 -88 0 -89 0 -23 -34
c-13 -19 -21 -41 -18 -49 3 -7 -11 -34 -30 -58 -45 -60 -59 -105 -52 -175 12
-137 122 -232 250 -215 125 17 217 117 217 236 0 29 6 52 14 59 44 37 22 114
-44 156 -22 14 -40 29 -40 33 0 4 9 36 20 70 35 110 23 169 -39 190 l-29 10
-4 -76z m22 -143 c-36 -86 -33 -81 -54 -73 -14 5 -14 9 4 34 26 36 55 105 66
155 l8 40 4 -42 c2 -30 -6 -62 -28 -114z m-125 -59 c0 -17 79 -60 111 -60 11
0 24 4 30 10 6 6 20 1 39 -15 25 -21 28 -26 15 -35 -8 -5 -27 -8 -42 -5 -90
16 -94 17 -73 4 11 -7 22 -15 25 -19 3 -4 12 -10 20 -14 8 -3 -5 -4 -30 -1
-72 9 -210 83 -210 112 0 4 9 16 20 28 17 18 28 21 58 16 23 -4 37 -12 37 -21z
m-84 -113 c33 -27 44 -60 29 -88 -9 -16 -18 -20 -38 -16 -70 14 -67 16 -70
-38 -3 -59 21 -105 70 -135 84 -51 221 12 249 114 6 21 13 36 15 33 13 -13
-20 -90 -51 -122 -53 -52 -154 -72 -214 -41 -100 52 -131 180 -67 277 30 45
41 47 77 16z"/>
<path d="M4160 3595 c-15 -18 -6 -45 13 -45 8 0 20 7 27 15 10 12 10 18 0 30
-16 19 -24 19 -40 0z"/>
<path d="M805 3576 c-18 -13 -18 -15 -3 -21 25 -10 53 -2 53 15 0 20 -26 24
-50 6z"/>
<path d="M674 3455 c-8 -21 2 -45 19 -45 8 0 20 7 27 15 10 12 10 18 0 30 -7
8 -19 15 -27 15 -7 0 -16 -7 -19 -15z"/>
<path d="M564 3395 c-8 -21 2 -45 19 -45 20 0 40 27 33 45 -7 19 -45 20 -52 0z"/>
<path d="M554 3257 c-6 -17 2 -37 16 -37 15 0 19 29 5 40 -12 10 -16 9 -21 -3z"/>
<path d="M560 3084 c0 -14 4 -23 10 -19 6 3 10 15 10 26 0 10 -4 19 -10 19 -5
0 -10 -12 -10 -26z"/>
<path d="M449 3014 c-16 -20 -1 -48 29 -52 27 -4 49 33 31 54 -15 19 -43 18
-60 -2z"/>
<path d="M4319 2794 c-17 -21 0 -48 34 -52 34 -4 54 29 31 52 -20 20 -48 20
-65 0z"/>
<path d="M452 2784 c-35 -24 -55 -72 -49 -117 13 -97 132 -139 201 -71 49 50
47 127 -6 176 -24 22 -39 28 -77 28 -26 0 -56 -7 -69 -16z m66 -36 c20 -20 14
-48 -12 -60 -51 -23 -79 25 -34 56 27 19 31 19 46 4z"/>
<path d="M4227 2793 c-26 -25 19 -61 49 -39 15 12 16 16 5 30 -14 16 -42 21
-54 9z"/>
<path d="M658 2529 c-45 -26 -5 -104 41 -80 36 20 36 62 0 81 -21 12 -20 12
-41 -1z"/>
<path d="M490 2395 c-16 -19 3 -45 32 -45 24 0 34 26 18 45 -16 19 -34 19 -50
0z"/>
<path d="M4283 1840 c-40 -24 -52 -73 -29 -118 17 -34 33 -42 82 -42 100 0
114 134 17 171 -32 12 -33 12 -70 -11z m52 -41 c7 -11 -22 -49 -37 -49 -10 0
-11 44 -1 53 10 10 31 8 38 -4z"/>
<path d="M4650 1072 c0 -4 6 -16 13 -27 24 -36 59 -133 54 -152 -3 -15 -5 -14
-14 7 -37 87 -64 142 -68 138 -7 -6 51 -282 65 -307 15 -29 38 -26 52 7 7 15
27 41 45 58 49 47 44 73 -30 174 -35 47 -75 91 -90 97 -15 7 -27 9 -27 5z"/>
<path d="M841 882 c-58 -32 -78 -100 -47 -161 36 -69 162 -67 194 4 48 105
-50 210 -147 157z m95 -21 c17 -10 37 -33 44 -51 18 -44 -6 -95 -55 -116 -68
-28 -125 13 -125 90 1 81 67 119 136 77z"/>
<path d="M4085 890 c-4 -7 -3 -16 3 -22 14 -14 45 -2 40 15 -6 16 -34 21 -43
7z"/>
<path d="M3995 871 c-3 -5 -1 -12 5 -16 12 -7 30 2 30 16 0 12 -27 12 -35 0z"/>
<path d="M3932 798 c-28 -28 1 -57 34 -33 15 11 16 15 5 29 -16 19 -23 20 -39
4z"/>
<path d="M3848 709 c-10 -5 -18 -17 -18 -24 0 -20 36 -19 44 1 13 34 5 42 -26
23z"/>
<path d="M1081 687 c-18 -23 -2 -49 28 -45 20 2 26 8 26 28 0 29 -34 40 -54
17z"/>
<path d="M2540 516 c0 -96 4 -167 10 -171 16 -10 21 35 18 184 -2 105 -6 146
-15 149 -10 3 -13 -34 -13 -162z"/>
<path d="M1854 570 c0 -58 1 -81 3 -52 2 28 2 76 0 105 -2 28 -3 5 -3 -53z"/>
<path d="M3725 624 c-38 -18 -99 -38 -135 -45 -66 -12 -200 -9 -232 5 -12 5
-18 4 -18 -3 0 -39 167 -54 282 -25 113 28 210 81 180 97 -4 2 -38 -11 -77
-29z"/>
<path d="M1760 496 c0 -93 4 -157 10 -161 7 -4 10 50 10 154 0 101 -4 161 -10
161 -6 0 -10 -58 -10 -154z"/>
<path d="M1677 633 c-2 -5 -2 -64 -1 -133 3 -167 3 -160 14 -160 13 0 14 287
1 295 -5 3 -11 2 -14 -2z"/>
<path d="M1597 623 c-10 -10 -8 -273 2 -273 12 0 21 77 21 174 0 78 -9 114
-23 99z"/>
<path d="M1210 605 c0 -8 5 -15 10 -15 6 0 10 7 10 15 0 8 -4 15 -10 15 -5 0
-10 -7 -10 -15z"/>
<path d="M1340 546 c0 -91 19 -115 22 -27 1 34 2 69 2 78 1 9 -5 18 -11 21
-10 3 -13 -16 -13 -72z"/>
<path d="M1428 603 c-8 -30 4 -243 13 -243 5 0 9 58 9 130 0 72 -4 130 -9 130
-5 0 -11 -8 -13 -17z"/>
<path d="M1508 575 c-7 -61 3 -225 13 -225 5 0 9 61 9 135 0 131 -12 181 -22
90z"/>
<path d="M2446 529 c-3 -34 -6 -70 -6 -80 0 -27 26 -24 34 4 12 46 3 137 -14
137 -4 0 -10 -28 -14 -61z"/>
<path d="M3245 576 c-16 -12 -18 -18 -9 -33 14 -23 34 -23 48 -1 8 14 7 21 -5
33 -13 13 -17 13 -34 1z"/>
<path d="M2637 533 c-4 -3 -7 -44 -7 -90 0 -63 3 -84 13 -81 8 3 13 33 15 91
3 79 -3 99 -21 80z"/>
</g>
</svg>
